<svg version="1.1" xmlns="http://www.w3.org/2000/svg" viewBox="0 0 1283 779" width="2566" height="1558">
  <!-- svg-source:excalidraw -->
  
  <defs>
    <style class="style-fonts">
      @font-face {
        font-family: "Virgil";
        src: url("https://excalidraw.com/Virgil.woff2");
      }
      @font-face {
        font-family: "Cascadia";
        src: url("https://excalidraw.com/Cascadia.woff2");
      }
      @font-face {
        font-family: "Assistant";
        src: url("https://excalidraw.com/Assistant-Regular.woff2");
      }
    </style>
    
  </defs>
  <rect x="0" y="0" width="1283" height="779" fill="#ffffff"></rect><g stroke-linecap="round" transform="translate(352 10) rotate(0 460.5 331)"><path d="M32 0 C207.5 -4, 383.93 -2.79, 889 0 M32 0 C248.56 2.53, 464.79 2.13, 889 0 M889 0 C911.68 -0.24, 922.37 9.83, 921 32 M889 0 C909.84 -1.68, 919.42 9.08, 921 32 M921 32 C921.33 160.64, 920.56 290.58, 921 630 M921 32 C921.47 210.37, 921.4 388.61, 921 630 M921 630 C919.19 649.41, 909.19 661.44, 889 662 M921 630 C922.61 650.66, 910.84 664.01, 889 662 M889 662 C576.54 660.1, 263.61 658.94, 32 662 M889 662 C657.4 661.57, 425.66 662.18, 32 662 M32 662 C11.85 661.57, -1.67 652.46, 0 630 M32 662 C11.18 662.22, 1.5 650.58, 0 630 M0 630 C-1.44 423.78, -1.77 215.48, 0 32 M0 630 C0.38 495.62, 0.32 361.09, 0 32 M0 32 C1.47 10.67, 12.31 -1.52, 32 0 M0 32 C-1.9 12.48, 12.61 0.56, 32 0" stroke="#1e1e1e" stroke-width="2" fill="none"></path></g><g transform="translate(622.3333282470703 15) rotate(0 190.1666717529297 12.5)"><text x="190.1666717529297" y="0" font-family="Virgil, Segoe UI Emoji" font-size="20px" fill="#1e1e1e" text-anchor="middle" style="white-space: pre;" direction="ltr" dominant-baseline="text-before-edge">CIM - Composable Information Machine</text></g><g stroke-linecap="round" transform="translate(943 74) rotate(0 155 236)"><path d="M32 0 C131.1 0.5, 226.19 -2.29, 278 0 M32 0 C103.06 1.23, 175.42 2.1, 278 0 M278 0 C299.75 -1.54, 308.1 11.14, 310 32 M278 0 C300.29 -0.85, 308.78 12.88, 310 32 M310 32 C309.59 150.41, 309.83 268.72, 310 440 M310 32 C311.15 171.71, 310.53 311.47, 310 440 M310 440 C310.33 462.72, 301.11 472.78, 278 472 M310 440 C309.84 463.32, 300.3 470.08, 278 472 M278 472 C183.67 474.1, 89.94 471.48, 32 472 M278 472 C185.26 470.81, 91.86 471.2, 32 472 M32 472 C12.6 470.13, 1.61 461.86, 0 440 M32 472 C11.7 473.72, 1.37 463.61, 0 440 M0 440 C-0.12 356.73, 0.45 270.98, 0 32 M0 440 C-2.09 313.68, -1.97 187.23, 0 32 M0 32 C1.25 12.24, 11 -0.91, 32 0 M0 32 C-1.76 11.11, 12.24 -1.07, 32 0" stroke="#1e1e1e" stroke-width="2" fill="none"></path></g><g transform="translate(1028.316665649414 79) rotate(0 69.68333435058594 12.5)"><text x="69.68333435058594" y="0" font-family="Virgil, Segoe UI Emoji" font-size="20px" fill="#1e1e1e" text-anchor="middle" style="white-space: pre;" direction="ltr" dominant-baseline="text-before-edge">Cloud Storage</text></g><g stroke-linecap="round" transform="translate(991 120) rotate(0 104.5 45)"><path d="M22.5 0 C81.81 -0.9, 145.99 0.62, 186.5 0 M22.5 0 C80.38 1.75, 136.85 1.14, 186.5 0 M186.5 0 C200 -0.3, 207.25 7.63, 209 22.5 M186.5 0 C203.16 2.24, 207.48 7.4, 209 22.5 M209 22.5 C207.88 35.73, 207.15 53.09, 209 67.5 M209 22.5 C209.73 38.31, 208.64 51.43, 209 67.5 M209 67.5 C210.62 82.08, 199.81 89.81, 186.5 90 M209 67.5 C210.08 83.18, 199.7 89.22, 186.5 90 M186.5 90 C124.09 89.32, 64.27 91.56, 22.5 90 M186.5 90 C135.21 90.81, 84.5 91.08, 22.5 90 M22.5 90 C7.56 91.27, -1.05 83.05, 0 67.5 M22.5 90 C7.28 89.61, 1.24 80.73, 0 67.5 M0 67.5 C-1.48 55.33, 0.58 45.7, 0 22.5 M0 67.5 C-0.75 57.16, -0.53 48.25, 0 22.5 M0 22.5 C1.6 8.19, 5.56 -0.62, 22.5 0 M0 22.5 C-1.04 8.96, 9.64 -1.77, 22.5 0" stroke="#1e1e1e" stroke-width="2" fill="none"></path></g><g transform="translate(1031.7000007629395 152.5) rotate(0 63.79999923706055 12.5)"><text x="63.79999923706055" y="0" font-family="Virgil, Segoe UI Emoji" font-size="20px" fill="#1e1e1e" text-anchor="middle" style="white-space: pre;" direction="ltr" dominant-baseline="text-before-edge">Object Store</text></g><g stroke-linecap="round" transform="translate(991 239) rotate(0 100 42.5)"><path d="M21.25 0 C77.37 0.79, 134.21 -1.5, 178.75 0 M21.25 0 C55.91 1.38, 89.69 0.96, 178.75 0 M178.75 0 C193.97 0.65, 198.27 7.03, 200 21.25 M178.75 0 C190.75 -2.04, 200.3 6.32, 200 21.25 M200 21.25 C198.88 30.02, 200.96 37.48, 200 63.75 M200 21.25 C200.54 35.44, 200.26 47.8, 200 63.75 M200 63.75 C198.18 79.25, 191.08 86.77, 178.75 85 M200 63.75 C201.98 77.36, 194.7 87.24, 178.75 85 M178.75 85 C134.77 84.25, 90.65 85.4, 21.25 85 M178.75 85 C133.64 84.97, 88.81 83.9, 21.25 85 M21.25 85 C7.6 83.52, 0.92 76.79, 0 63.75 M21.25 85 C7.23 84.4, -0.41 78.38, 0 63.75 M0 63.75 C-0.98 50.89, 1.89 38.94, 0 21.25 M0 63.75 C0.26 52.13, 0.33 41.62, 0 21.25 M0 21.25 C-0.4 6.33, 5.7 0.11, 21.25 0 M0 21.25 C2.11 6.86, 8.71 -1.99, 21.25 0" stroke="#1e1e1e" stroke-width="2" fill="none"></path></g><g transform="translate(1031.216667175293 269) rotate(0 59.78333282470703 12.5)"><text x="59.78333282470703" y="0" font-family="Virgil, Segoe UI Emoji" font-size="20px" fill="#1e1e1e" text-anchor="middle" style="white-space: pre;" direction="ltr" dominant-baseline="text-before-edge">Event Store</text></g><g stroke-linecap="round" transform="translate(642 129) rotate(0 139.5 60)"><path d="M175 15.25 C194.27 25.33, 216.2 33.2, 244 45.75 M175 15.25 C197.68 25.3, 219.22 35.39, 244 45.75 M244 45.75 C277.77 62.04, 277.99 62.02, 244 76.25 M244 45.75 C279.89 58.95, 279.1 60.92, 244 76.25 M244 76.25 C222.3 85.12, 200.69 92.88, 175 104.75 M244 76.25 C228.59 83.61, 211.61 89.89, 175 104.75 M175 104.75 C141.52 119.88, 138.59 121.65, 105 104.75 M175 104.75 C138.86 119.79, 139.39 119.92, 105 104.75 M105 104.75 C79.87 93.37, 50.1 80.77, 35 76.25 M105 104.75 C89.91 98.84, 74.86 92.74, 35 76.25 M35 76.25 C-0.04 62.21, -1.93 60.53, 35 45.75 M35 76.25 C1.13 62.62, 1.47 59.26, 35 45.75 M35 45.75 C55.22 38.38, 78.67 28.74, 105 15.25 M35 45.75 C52.88 38.98, 71.45 31.48, 105 15.25 M105 15.25 C139.01 0.62, 139.83 1.97, 175 15.25 M105 15.25 C139.57 -2.29, 140.05 0.29, 175 15.25" stroke="#1e1e1e" stroke-width="2" fill="none"></path></g><g transform="translate(717.5 176.5) rotate(0 64.25 12.5)"><text x="64.25" y="0" font-family="Virgil, Segoe UI Emoji" font-size="20px" fill="#1e1e1e" text-anchor="middle" style="white-space: pre;" direction="ltr" dominant-baseline="text-before-edge">Transactions</text></g><g stroke-linecap="round" transform="translate(415 310) rotate(0 92.5 65)"><path d="M32 0 C66.45 0.05, 103.14 0.36, 153 0 M32 0 C64.6 0.15, 95.84 1.16, 153 0 M153 0 C172.63 0.87, 183.64 9.93, 185 32 M153 0 C176.44 -2.25, 185.34 8.95, 185 32 M185 32 C183.9 50.2, 183.9 65.76, 185 98 M185 32 C185.13 52.65, 183.98 72.67, 185 98 M185 98 C185.41 117.47, 176.29 130.05, 153 130 M185 98 C183.06 120.58, 172.73 131.58, 153 130 M153 130 C126.28 131.92, 99.35 132.18, 32 130 M153 130 C123.18 129.97, 93.31 130.68, 32 130 M32 130 C11.22 128.55, -1.11 118.67, 0 98 M32 130 C11.61 131.16, 2.3 121.29, 0 98 M0 98 C0.16 78.39, 0.69 61.44, 0 32 M0 98 C0.45 72.21, 0.44 46.91, 0 32 M0 32 C-1.66 9.95, 10.42 0.87, 32 0 M0 32 C0.34 12.04, 12.93 1.83, 32 0" stroke="#1e1e1e" stroke-width="2" fill="none"></path></g><g transform="translate(430.33333587646484 362.5) rotate(0 77.16666412353516 12.5)"><text x="77.16666412353516" y="0" font-family="Virgil, Segoe UI Emoji" font-size="20px" fill="#1e1e1e" text-anchor="middle" style="white-space: pre;" direction="ltr" dominant-baseline="text-before-edge">API Aggregator</text></g><g stroke-linecap="round" transform="translate(35.999999999999986 83) rotate(0 46.500000000000014 46)"><path d="M62.6 2.78 C70.12 4.58, 78.11 10.72, 83.18 17.36 C88.25 24.01, 92.28 34.19, 92.99 42.66 C93.71 51.12, 91.38 60.83, 87.47 68.16 C83.55 75.49, 76.86 82.69, 69.49 86.64 C62.11 90.6, 51.54 92.54, 43.23 91.88 C34.92 91.21, 26.48 87.55, 19.65 82.65 C12.81 77.75, 5.19 70.1, 2.22 62.48 C-0.74 54.86, -0.04 44.89, 1.85 36.91 C3.74 28.93, 7.93 20.61, 13.57 14.59 C19.21 8.57, 27.13 2.6, 35.68 0.78 C44.23 -1.03, 59.21 2.69, 64.87 3.69 C70.53 4.7, 69.64 6.16, 69.62 6.8 M48.61 0.58 C56.29 0.47, 66.17 3.84, 72.81 8.45 C79.45 13.06, 85.42 20.62, 88.44 28.25 C91.46 35.87, 92.33 45.69, 90.95 54.19 C89.56 62.7, 85.68 73.41, 80.12 79.26 C74.55 85.11, 65.88 87.78, 57.57 89.29 C49.26 90.81, 38.45 90.98, 30.25 88.35 C22.06 85.71, 13.17 80.1, 8.39 73.48 C3.61 66.87, 2.16 56.96, 1.57 48.66 C0.97 40.36, 1.18 31, 4.83 23.7 C8.48 16.41, 15.98 9.02, 23.46 4.89 C30.94 0.76, 45.68 -0.65, 49.71 -1.09 C53.74 -1.52, 47.98 1.55, 47.65 2.29" stroke="#1e1e1e" stroke-width="2" fill="none"></path></g><g transform="translate(58.55286711806285 116.4730880654188) rotate(0 24.066667556762695 12.5)"><text x="24.066667556762695" y="0" font-family="Virgil, Segoe UI Emoji" font-size="20px" fill="#1e1e1e" text-anchor="middle" style="white-space: pre;" direction="ltr" dominant-baseline="text-before-edge">APIs</text></g><g stroke-linecap="round" transform="translate(9.999999999999986 351) rotate(0 64.99999999999999 29.5)"><path d="M86.82 0.84 C96.95 2.15, 108.41 7.12, 115.49 11.1 C122.57 15.08, 127.67 19.9, 129.29 24.74 C130.91 29.58, 128.81 35.47, 125.22 40.12 C121.63 44.77, 115.83 49.63, 107.76 52.65 C99.69 55.67, 87.52 57.43, 76.79 58.24 C66.07 59.06, 53.56 59.13, 43.4 57.54 C33.23 55.96, 23.01 52.53, 15.8 48.74 C8.59 44.95, 2 39.73, 0.14 34.81 C-1.72 29.9, 0.71 23.98, 4.63 19.25 C8.56 14.51, 15.42 9.49, 23.71 6.4 C32 3.31, 42.95 1.41, 54.37 0.72 C65.78 0.04, 85.11 1.48, 92.19 2.27 C99.26 3.05, 97.05 4.88, 96.82 5.44 M33.42 3.22 C42.28 0.33, 56.31 -1.5, 67.27 -1.46 C78.24 -1.41, 90.28 0.72, 99.2 3.49 C108.12 6.27, 115.58 10.57, 120.79 15.21 C126.01 19.84, 130.49 26.09, 130.47 31.29 C130.45 36.49, 126.52 42.2, 120.68 46.4 C114.84 50.6, 104.85 54.45, 95.44 56.49 C86.03 58.52, 75.09 58.87, 64.19 58.62 C53.29 58.36, 39.25 57.6, 30.04 54.96 C20.82 52.31, 14.03 47.03, 8.9 42.74 C3.76 38.45, -1.1 33.91, -0.77 29.2 C-0.44 24.5, 5.16 18.89, 10.89 14.51 C16.61 10.14, 29.39 4.6, 33.56 2.95 C37.73 1.29, 35.15 3.85, 35.88 4.59" stroke="#1e1e1e" stroke-width="2" fill="none"></path></g><g transform="translate(56.98333358764647 368.14034995499685) rotate(0 18.016666412353516 12.5)"><text x="18.016666412353516" y="0" font-family="Virgil, Segoe UI Emoji" font-size="20px" fill="#1e1e1e" text-anchor="middle" style="white-space: pre;" direction="ltr" dominant-baseline="text-before-edge">UIs</text></g><g stroke-linecap="round"><g transform="translate(924.0472291862552 187.5749773784846) rotate(0 31.476385406872396 -3.5183467308307854)"><path d="M0.35 0.3 C11.05 -1.08, 53.23 -6.19, 63.65 -7.44 M-0.92 -0.58 C9.73 -1.88, 52.57 -5.21, 63.08 -6.11" stroke="#1e1e1e" stroke-width="2" fill="none"></path></g><g transform="translate(924.0472291862552 187.5749773784846) rotate(0 31.476385406872396 -3.5183467308307854)"><path d="M40.36 4.33 C46.57 2.77, 51.19 -1.15, 63.08 -6.11 M40.36 4.33 C46.61 0.68, 53.81 -1.77, 63.08 -6.11" stroke="#1e1e1e" stroke-width="2" fill="none"></path></g><g transform="translate(924.0472291862552 187.5749773784846) rotate(0 31.476385406872396 -3.5183467308307854)"><path d="M38.96 -12.72 C45.66 -9.94, 50.63 -9.52, 63.08 -6.11 M38.96 -12.72 C45.66 -11.48, 53.25 -9.04, 63.08 -6.11" stroke="#1e1e1e" stroke-width="2" fill="none"></path></g></g><mask></mask><g stroke-linecap="round" transform="translate(1003 410) rotate(0 94 42.5)"><path d="M129.81 3.72 C142.13 5.35, 153.78 9.16, 162.75 13.72 C171.72 18.28, 179.72 25.21, 183.61 31.06 C187.51 36.92, 188.37 42.88, 186.12 48.86 C183.88 54.84, 177.67 61.77, 170.13 66.97 C162.59 72.17, 152.47 77.11, 140.87 80.06 C129.26 83.01, 114.3 84.51, 100.49 84.67 C86.69 84.83, 70.79 83.2, 58.02 81.01 C45.26 78.83, 32.99 76.02, 23.92 71.56 C14.85 67.1, 7.55 60.11, 3.62 54.26 C-0.31 48.4, -1.96 42.55, 0.36 36.42 C2.67 30.29, 9.46 22.79, 17.51 17.48 C25.56 12.16, 37.02 7.26, 48.66 4.52 C60.29 1.77, 73.04 1.12, 87.34 1 C101.65 0.88, 125.78 2.83, 134.5 3.78 C143.22 4.72, 140.24 5.93, 139.66 6.67 M63.89 1.68 C75.66 -0.91, 92.7 -1.74, 105.83 -1.14 C118.95 -0.54, 131.09 1.89, 142.63 5.28 C154.17 8.68, 167.43 13.96, 175.07 19.23 C182.71 24.51, 187.16 30.76, 188.46 36.93 C189.76 43.11, 187.75 50.22, 182.85 56.27 C177.95 62.33, 168.95 68.81, 159.07 73.27 C149.2 77.73, 136.42 81.06, 123.59 83.04 C110.77 85.01, 95.51 85.93, 82.13 85.12 C68.75 84.31, 54.57 81.56, 43.3 78.16 C32.03 74.76, 21.82 69.7, 14.49 64.7 C7.16 59.7, 0.73 54.27, -0.67 48.17 C-2.08 42.06, 1.28 34.18, 6.04 28.08 C10.81 21.99, 18.6 15.87, 27.93 11.61 C37.27 7.36, 56.35 3.84, 62.06 2.54 C67.78 1.24, 61.8 3.05, 62.21 3.83" stroke="#1e1e1e" stroke-width="2" fill="none"></path></g><g transform="translate(1043.3486282178785 439.9479617995718) rotate(0 53.68333435058594 12.5)"><text x="53.68333435058594" y="0" font-family="Virgil, Segoe UI Emoji" font-size="20px" fill="#1e1e1e" text-anchor="middle" style="white-space: pre;" direction="ltr" dominant-baseline="text-before-edge">Projections</text></g><g mask="url(#mask-76Ka1uiWE1r7j8Jp8WzRD)" stroke-linecap="round"><g transform="translate(515.4195709573114 307) rotate(0 82.52384261223023 -50.183184988392384)"><path d="M1.05 0.36 C28.71 -16.2, 138.51 -83.24, 165.72 -100.12 M0.14 -0.49 C27.73 -17.37, 137.35 -85.55, 165.13 -102.11" stroke="#1e1e1e" stroke-width="2" fill="none"></path></g><g transform="translate(515.4195709573114 307) rotate(0 82.52384261223023 -50.183184988392384)"><path d="M149.53 -82.57 C154.58 -87.01, 158.72 -94.81, 165.13 -102.11 M149.53 -82.57 C152.74 -87.55, 156.85 -91.78, 165.13 -102.11" stroke="#1e1e1e" stroke-width="2" fill="none"></path></g><g transform="translate(515.4195709573114 307) rotate(0 82.52384261223023 -50.183184988392384)"><path d="M140.62 -97.16 C148.05 -97.63, 154.66 -101.39, 165.13 -102.11 M140.62 -97.16 C146.18 -98.33, 152.57 -98.83, 165.13 -102.11" stroke="#1e1e1e" stroke-width="2" fill="none"></path></g></g><mask id="mask-76Ka1uiWE1r7j8Jp8WzRD"><rect x="0" y="0" fill="#fff" width="780.4672561817719" height="507.36636997678477"></rect><rect x="556.2934120436628" y="231.81681501160756" fill="#000" width="83.30000305175781" height="50" opacity="1"></rect></mask><g transform="translate(556.2934120436628 231.81681501160762) rotate(0 42.05406020143994 24.307829852011054)"><text x="41.650001525878906" y="0" font-family="Virgil, Segoe UI Emoji" font-size="20px" fill="#1e1e1e" text-anchor="middle" style="white-space: pre;" direction="ltr" dominant-baseline="text-before-edge">Command</text><text x="41.650001525878906" y="25" font-family="Virgil, Segoe UI Emoji" font-size="20px" fill="#1e1e1e" text-anchor="middle" style="white-space: pre;" direction="ltr" dominant-baseline="text-before-edge">Query</text></g><g mask="url(#mask-dwmGoYhXo_ModmRw3QC23)" stroke-linecap="round"><g transform="translate(990 319.9607958122063) rotate(0 -193.5 31.26377486275277)"><path d="M-0.38 0.32 C-31.67 8.59, -123.21 39.06, -187.69 49.43 C-252.17 59.8, -354.15 60.36, -387.26 62.54 M1.62 -0.56 C-29.28 7.35, -120.37 36.78, -185.33 47.51 C-250.3 58.25, -354.75 61.18, -388.16 63.86" stroke="#1e1e1e" stroke-width="2" fill="none"></path></g><g transform="translate(990 319.9607958122063) rotate(0 -193.5 31.26377486275277)"><path d="M-365.2 53.96 C-371.67 55.76, -378.55 59.49, -388.16 63.86 M-365.2 53.96 C-371.98 56.58, -379.21 60.47, -388.16 63.86" stroke="#1e1e1e" stroke-width="2" fill="none"></path></g><g transform="translate(990 319.9607958122063) rotate(0 -193.5 31.26377486275277)"><path d="M-364.21 71.03 C-370.96 67.63, -378.14 66.16, -388.16 63.86 M-364.21 71.03 C-371.38 68.52, -378.91 67.28, -388.16 63.86" stroke="#1e1e1e" stroke-width="2" fill="none"></path></g></g><mask id="mask-dwmGoYhXo_ModmRw3QC23"><rect x="0" y="0" fill="#fff" width="1477" height="482.48834553771184"></rect><rect x="769.8166656494141" y="356.49999999999994" fill="#000" width="66.36666870117188" height="25" opacity="1"></rect></mask><g transform="translate(769.8166656494141 356.5) rotate(0 26.916115661226286 -4.888783408303311)"><text x="33.18333435058594" y="0" font-family="Virgil, Segoe UI Emoji" font-size="20px" fill="#1e1e1e" text-anchor="middle" style="white-space: pre;" direction="ltr" dominant-baseline="text-before-edge">Events</text></g><g stroke-linecap="round"><g transform="translate(1092.2647693549598 325) rotate(0 -0.6654074295362307 41.96810297873094)"><path d="M-0.8 -0.16 C-0.94 13.73, -1.37 69.74, -1.56 83.95 M0.98 -1.3 C0.72 12.75, -1.97 71.39, -2.63 85.49" stroke="#1e1e1e" stroke-width="2" fill="none"></path></g><g transform="translate(1092.2647693549598 325) rotate(0 -0.6654074295362307 41.96810297873094)"><path d="M-10.1 61.63 C-8.47 67, -6.39 72.09, -2.63 85.49 M-10.1 61.63 C-6.54 71.87, -4.36 80.1, -2.63 85.49" stroke="#1e1e1e" stroke-width="2" fill="none"></path></g><g transform="translate(1092.2647693549598 325) rotate(0 -0.6654074295362307 41.96810297873094)"><path d="M6.99 62.41 C4.52 67.48, 2.51 72.38, -2.63 85.49 M6.99 62.41 C3.83 72.37, -0.7 80.29, -2.63 85.49" stroke="#1e1e1e" stroke-width="2" fill="none"></path></g></g><mask></mask><g mask="url(#mask-sobQ85b7_JMI74F2BYgbV)" stroke-linecap="round"><g transform="translate(118.16091649012942 357.293878903364) rotate(0 144.91954175493527 12.781583036307836)"><path d="M0.54 -0.21 C48.84 4.31, 240.62 22.16, 289 26.4 M-0.64 -1.37 C48.11 2.89, 242.74 20.09, 291.26 24.71" stroke="#1e1e1e" stroke-width="2" fill="none"></path></g><g transform="translate(118.16091649012942 357.293878903364) rotate(0 144.91954175493527 12.781583036307836)"><path d="M267.09 31.09 C272.34 28.11, 279.66 29.61, 291.26 24.71 M267.09 31.09 C273.89 28.81, 280.11 27.32, 291.26 24.71" stroke="#1e1e1e" stroke-width="2" fill="none"></path></g><g transform="translate(118.16091649012942 357.293878903364) rotate(0 144.91954175493527 12.781583036307836)"><path d="M268.65 14.06 C273.43 15.01, 280.39 20.43, 291.26 24.71 M268.65 14.06 C274.98 16.44, 280.77 19.59, 291.26 24.71" stroke="#1e1e1e" stroke-width="2" fill="none"></path></g></g><mask id="mask-sobQ85b7_JMI74F2BYgbV"><rect x="0" y="0" fill="#fff" width="507.99999999999994" height="482.85704497597965"></rect><rect x="206.03045900800416" y="357.57546193967187" fill="#000" width="114.0999984741211" height="25" opacity="1"></rect></mask><g transform="translate(206.03045900800413 357.5754619396718) rotate(0 57.44174809332935 12.231113343443724)"><text x="57.04999923706055" y="0" font-family="Virgil, Segoe UI Emoji" font-size="20px" fill="#1e1e1e" text-anchor="middle" style="white-space: pre;" direction="ltr" dominant-baseline="text-before-edge">Write Model</text></g><g stroke-linecap="round"><g transform="translate(1091.2900520645967 212) rotate(0 -0.20649900105775032 12.5)"><path d="M0.15 -0.52 C0.17 3.61, -0.35 20.59, -0.43 24.92 M-0.43 0.4 C-0.44 4.6, -0.84 21.54, -0.86 25.58" stroke="#1e1e1e" stroke-width="2" fill="none"></path></g><g transform="translate(1091.2900520645967 212) rotate(0 -0.20649900105775032 12.5)"><path d="M-4.95 13.77 C-4.69 16.15, -3.36 18.72, -0.86 25.58 M-4.95 13.77 C-3.53 18.19, -2.08 23.14, -0.86 25.58" stroke="#1e1e1e" stroke-width="2" fill="none"></path></g><g transform="translate(1091.2900520645967 212) rotate(0 -0.20649900105775032 12.5)"><path d="M3.6 13.9 C2.12 16.27, 1.71 18.81, -0.86 25.58 M3.6 13.9 C1.71 18.29, -0.17 23.19, -0.86 25.58" stroke="#1e1e1e" stroke-width="2" fill="none"></path></g></g><mask></mask><g stroke-linecap="round" transform="translate(385 121) rotate(0 107 44)"><path d="M135 11.25 C153.5 19.4, 169.71 25.81, 187 33.75 M135 11.25 C153.6 18.92, 170.17 26.92, 187 33.75 M187 33.75 C214.66 44.06, 215.97 45.93, 187 56.25 M187 33.75 C212.75 46.76, 214.26 46.98, 187 56.25 M187 56.25 C165.45 64.29, 145.66 73.45, 135 76.75 M187 56.25 C167.23 64.45, 145.49 72.77, 135 76.75 M135 76.75 C109.48 89.94, 108.66 86.2, 81 76.75 M135 76.75 C106.32 87.38, 109.5 88.74, 81 76.75 M81 76.75 C63.86 71.82, 48.9 64.02, 27 56.25 M81 76.75 C69.37 72.59, 57.73 68.65, 27 56.25 M27 56.25 C-1.98 46.63, -1.97 46.15, 27 33.75 M27 56.25 C1 43.49, 0 43.22, 27 33.75 M27 33.75 C46.66 27.21, 64.42 18.92, 81 11.25 M27 33.75 C47.74 26.71, 68.29 17.51, 81 11.25 M81 11.25 C108.68 -1.88, 109.92 1.58, 135 11.25 M81 11.25 C109.3 -0.07, 106.69 -0.17, 135 11.25" stroke="#1e1e1e" stroke-width="2" fill="none"></path></g><g transform="translate(455.93333435058594 152.5) rotate(0 36.06666564941406 12.5)"><text x="36.06666564941406" y="0" font-family="Virgil, Segoe UI Emoji" font-size="20px" fill="#1e1e1e" text-anchor="middle" style="white-space: pre;" direction="ltr" dominant-baseline="text-before-edge">Mapping</text></g><g mask="url(#mask-vPMSBHOi86w4NNP-h78rN)" stroke-linecap="round"><g transform="translate(400 415.0213236618533) rotate(0 -131.78985267051428 -8.959327519242947)"><path d="M0.96 -0.77 C-42.79 -4.03, -218.89 -15.76, -263.16 -18.63 M0 1.44 C-43.82 -1.77, -220.16 -14.45, -263.89 -17.47" stroke="#1e1e1e" stroke-width="2" fill="none"></path></g><g transform="translate(400 415.0213236618533) rotate(0 -131.78985267051428 -8.959327519242947)"><path d="M-239.85 -24.34 C-247.02 -21.75, -252.88 -22.55, -263.89 -17.47 M-239.85 -24.34 C-247.73 -22.06, -254.98 -20.07, -263.89 -17.47" stroke="#1e1e1e" stroke-width="2" fill="none"></path></g><g transform="translate(400 415.0213236618533) rotate(0 -131.78985267051428 -8.959327519242947)"><path d="M-241.06 -7.28 C-248.07 -8.92, -253.62 -13.94, -263.89 -17.47 M-241.06 -7.28 C-248.62 -10.01, -255.52 -13.04, -263.89 -17.47" stroke="#1e1e1e" stroke-width="2" fill="none"></path></g></g><mask id="mask-vPMSBHOi86w4NNP-h78rN"><rect x="0" y="0" fill="#fff" width="763.5797053410286" height="532.9399787003392"></rect><rect x="211.62681526771814" y="393.5619961426103" fill="#000" width="113.16666412353516" height="25" opacity="1"></rect></mask><g transform="translate(211.62681526771814 393.56199614261027) rotate(0 56.90976756102407 12.862134766662507)"><text x="56.58333206176758" y="0" font-family="Virgil, Segoe UI Emoji" font-size="20px" fill="#1e1e1e" text-anchor="middle" style="white-space: pre;" direction="ltr" dominant-baseline="text-before-edge">Read Model</text></g><g mask="url(#mask-L8qL-6bYBJ0LGeYnd6gzZ)" stroke-linecap="round"><g transform="translate(1014.3075052483568 479.56591744991533) rotate(0 -245.15375262417842 1.9340825500846677)"><path d="M1.11 -0.38 C-42.12 6.13, -177.24 44.92, -259.04 39.11 C-340.84 33.29, -451.11 -22.62, -489.69 -35.26 M0.23 -1.62 C-43.17 5.05, -178.12 45.83, -259.84 40.47 C-341.57 35.11, -451.71 -21, -490.13 -33.79" stroke="#1e1e1e" stroke-width="2" fill="none"></path></g><g transform="translate(1014.3075052483568 479.56591744991533) rotate(0 -245.15375262417842 1.9340825500846677)"><path d="M-465.14 -32.93 C-474.03 -32.53, -482.2 -32.23, -490.13 -33.79 M-465.14 -32.93 C-472.93 -32.75, -481.85 -32.81, -490.13 -33.79" stroke="#1e1e1e" stroke-width="2" fill="none"></path></g><g transform="translate(1014.3075052483568 479.56591744991533) rotate(0 -245.15375262417842 1.9340825500846677)"><path d="M-471.54 -17.07 C-478.32 -21.97, -484.38 -26.91, -490.13 -33.79 M-471.54 -17.07 C-477.22 -21.99, -484.06 -27.2, -490.13 -33.79" stroke="#1e1e1e" stroke-width="2" fill="none"></path></g></g><mask id="mask-L8qL-6bYBJ0LGeYnd6gzZ"><rect x="0" y="0" fill="#fff" width="1604.6150104967137" height="654.5659174499153"></rect><rect x="679.0999984741211" y="506.5" fill="#000" width="151.8000030517578" height="25" opacity="1"></rect></mask><g transform="translate(679.0999984741211 506.5) rotate(0 90.69844022157622 -24.08726705202909)"><text x="75.9000015258789" y="0" font-family="Virgil, Segoe UI Emoji" font-size="20px" fill="#1e1e1e" text-anchor="middle" style="white-space: pre;" direction="ltr" dominant-baseline="text-before-edge">Query Response</text></g><g stroke-linecap="round" transform="translate(991 720) rotate(0 120 24.5)"><path d="M141.08 0.2 C156.53 0.48, 174.75 2.25, 188.4 4.31 C202.05 6.37, 214.47 9.58, 222.98 12.57 C231.5 15.56, 237.56 19.13, 239.48 22.26 C241.39 25.39, 239.33 28.24, 234.49 31.36 C229.64 34.47, 220.88 38.39, 210.42 40.95 C199.96 43.51, 186.2 45.31, 171.7 46.7 C157.2 48.09, 139.62 49.12, 123.41 49.29 C107.2 49.47, 89.45 49.02, 74.44 47.74 C59.44 46.46, 44.55 44.21, 33.38 41.62 C22.21 39.03, 12.91 35.4, 7.41 32.19 C1.91 28.99, -0.78 25.47, 0.4 22.38 C1.58 19.29, 6.68 16.39, 14.48 13.64 C22.28 10.88, 34.24 8.09, 47.21 5.84 C60.18 3.59, 74.04 0.84, 92.31 0.13 C110.58 -0.58, 143.76 1.13, 156.81 1.6 C169.87 2.07, 171.33 2.58, 170.63 2.96 M159.05 -0.09 C174.29 0.28, 191.66 2.52, 203.6 5.25 C215.54 7.97, 224.8 12.93, 230.7 16.25 C236.59 19.58, 239.27 21.95, 238.98 25.19 C238.69 28.43, 235.62 32.55, 228.96 35.7 C222.29 38.85, 211.45 41.84, 198.98 44.09 C186.52 46.34, 169.97 48.44, 154.19 49.19 C138.4 49.93, 120.55 49.23, 104.26 48.57 C87.97 47.91, 70.2 47.05, 56.44 45.23 C42.67 43.4, 30.83 40.31, 21.69 37.62 C12.55 34.93, 4.55 32.42, 1.6 29.09 C-1.35 25.76, 0.15 21.12, 3.97 17.64 C7.78 14.15, 14.57 10.75, 24.5 8.2 C34.42 5.65, 49.46 3.47, 63.54 2.35 C77.62 1.24, 92.88 1.44, 108.97 1.52 C125.06 1.6, 151.78 2.96, 160.06 2.82 C168.34 2.68, 159.38 0.38, 158.64 0.68" stroke="#1e1e1e" stroke-width="2" fill="none"></path></g><g transform="translate(1053.5305213711397 732.1758838609296) rotate(0 57.61666488647461 12.5)"><text x="57.61666488647461" y="0" font-family="Virgil, Segoe UI Emoji" font-size="20px" fill="#1e1e1e" text-anchor="middle" style="white-space: pre;" direction="ltr" dominant-baseline="text-before-edge">Local Data</text></g><g stroke-linecap="round"><g transform="translate(1100.2491562201049 495.9841242886938) rotate(0 1.9949223132491625 111.01304394227719)"><path d="M-0.15 0.01 C0.49 36.94, 4.24 185.48, 4.88 222.57 M-1.69 -1.03 C-1.22 35.46, 3.65 183.81, 4.41 220.73" stroke="#1e1e1e" stroke-width="2" fill="none"></path></g><g transform="translate(1100.2491562201049 495.9841242886938) rotate(0 1.9949223132491625 111.01304394227719)"><path d="M-4.78 197.48 C-1.04 207.93, 3.39 214.97, 4.41 220.73 M-4.78 197.48 C-0.92 205.42, 2.02 214.13, 4.41 220.73" stroke="#1e1e1e" stroke-width="2" fill="none"></path></g><g transform="translate(1100.2491562201049 495.9841242886938) rotate(0 1.9949223132491625 111.01304394227719)"><path d="M12.31 197.02 C9.48 207.63, 7.33 214.84, 4.41 220.73 M12.31 197.02 C10.28 205.11, 7.32 213.98, 4.41 220.73" stroke="#1e1e1e" stroke-width="2" fill="none"></path></g></g><mask></mask><g stroke-linecap="round"><g transform="translate(997.3343898915987 733.9778100615515) rotate(0 -251.66719494579934 -140.98890503077575)"><path d="M1.19 0.42 C-49.31 -30.76, -217.79 -140.23, -301.83 -187.27 C-385.87 -234.3, -469.45 -265.93, -503.07 -281.82 M0.36 -0.41 C-50.45 -31.4, -219.03 -139.21, -303.04 -185.88 C-387.04 -232.55, -470.3 -264.42, -503.69 -280.42" stroke="#1e1e1e" stroke-width="2" fill="none"></path></g><g transform="translate(997.3343898915987 733.9778100615515) rotate(0 -251.66719494579934 -140.98890503077575)"><path d="M-478.75 -278.74 C-488.03 -279.98, -499.18 -279.39, -503.69 -280.42 M-478.75 -278.74 C-487.4 -278.47, -494.21 -279.04, -503.69 -280.42" stroke="#1e1e1e" stroke-width="2" fill="none"></path></g><g transform="translate(997.3343898915987 733.9778100615515) rotate(0 -251.66719494579934 -140.98890503077575)"><path d="M-485.66 -263.1 C-492.15 -270.67, -500.54 -276.32, -503.69 -280.42 M-485.66 -263.1 C-492.12 -267.69, -496.77 -273.17, -503.69 -280.42" stroke="#1e1e1e" stroke-width="2" fill="none"></path></g></g><mask></mask><g mask="url(#mask-9jmTY-GQT--A1BhyFvxRQ)" stroke-linecap="round"><g transform="translate(136.03642717659534 131.51613410716163) rotate(0 124.00310732801165 16.597481103796596)"><path d="M0.76 -0.92 C21.54 1.72, 82.8 10.58, 124.18 16.12 C165.56 21.67, 228.26 29.6, 249.04 32.36 M-0.3 1.21 C20.38 3.96, 81.82 11.87, 123.34 17.21 C164.86 22.55, 227.78 30.52, 248.82 33.24" stroke="#1e1e1e" stroke-width="2" fill="none"></path></g><g transform="translate(136.03642717659534 131.51613410716163) rotate(0 124.00310732801165 16.597481103796596)"><path d="M224.43 38.74 C229.18 37.53, 235.56 37.47, 248.82 33.24 M224.43 38.74 C229.98 38.12, 236.26 36.81, 248.82 33.24" stroke="#1e1e1e" stroke-width="2" fill="none"></path></g><g transform="translate(136.03642717659534 131.51613410716163) rotate(0 124.00310732801165 16.597481103796596)"><path d="M226.6 21.78 C230.83 24.96, 236.66 29.28, 248.82 33.24 M226.6 21.78 C231.78 25.06, 237.55 27.67, 248.82 33.24" stroke="#1e1e1e" stroke-width="2" fill="none"></path></g></g><mask id="mask-9jmTY-GQT--A1BhyFvxRQ"><rect x="0" y="0" fill="#fff" width="484.04264183261864" height="264.71109631475485"></rect><rect x="220.04999923706055" y="136" fill="#000" width="79.9000015258789" height="25" opacity="1"></rect></mask><g transform="translate(220.0499992370605 136) rotate(0 40.35500462342765 11.679346979268303)"><text x="39.95000076293945" y="0" font-family="Virgil, Segoe UI Emoji" font-size="20px" fill="#1e1e1e" text-anchor="middle" style="white-space: pre;" direction="ltr" dominant-baseline="text-before-edge">Request</text></g><g mask="url(#mask-rttGGoKcL6fiJ3UkAPl_i)" stroke-linecap="round"><g transform="translate(414.6735645007435 326.63786523333755) rotate(0 -144.7132379807582 -79.87973888163174)"><path d="M-0.13 -0.37 C-48.17 -26.81, -240.92 -133.08, -289.32 -159.82 M-1.66 -1.61 C-49.75 -27.74, -242.46 -131.91, -290.21 -158.32" stroke="#1e1e1e" stroke-width="2" fill="none"></path></g><g transform="translate(414.6735645007435 326.63786523333755) rotate(0 -144.7132379807582 -79.87973888163174)"><path d="M-265.5 -154.57 C-271.23 -155.2, -275.87 -157.96, -290.21 -158.32 M-265.5 -154.57 C-271.43 -154.67, -276.16 -155.79, -290.21 -158.32" stroke="#1e1e1e" stroke-width="2" fill="none"></path></g><g transform="translate(414.6735645007435 326.63786523333755) rotate(0 -144.7132379807582 -79.87973888163174)"><path d="M-273.69 -139.56 C-277.57 -143.31, -280.5 -149.21, -290.21 -158.32 M-273.69 -139.56 C-277.95 -142.79, -280.95 -147.08, -290.21 -158.32" stroke="#1e1e1e" stroke-width="2" fill="none"></path></g></g><mask id="mask-rttGGoKcL6fiJ3UkAPl_i"><rect x="0" y="0" fill="#fff" width="804.1000404622599" height="586.3973429966011"></rect><rect x="226.24365934469233" y="234.2581263517058" fill="#000" width="87.43333435058594" height="25" opacity="1"></rect></mask><g transform="translate(226.24365934469233 234.2581263517058) rotate(0 43.2564572450612 12.283934680744991)"><text x="43.71666717529297" y="0" font-family="Virgil, Segoe UI Emoji" font-size="20px" fill="#1e1e1e" text-anchor="middle" style="white-space: pre;" direction="ltr" dominant-baseline="text-before-edge">Response</text></g><g stroke-linecap="round"><g transform="translate(490.82880100979787 206.40340982982661) rotate(0 0.8345925704637693 49.96810297873094)"><path d="M-0.97 0.1 C-0.7 16.66, 1.79 83.52, 2.25 100.29 M0.72 -0.89 C0.83 15.21, 1.55 81.75, 1.61 98.35" stroke="#1e1e1e" stroke-width="2" fill="none"></path></g><g transform="translate(490.82880100979787 206.40340982982661) rotate(0 0.8345925704637693 49.96810297873094)"><path d="M-7.12 74.92 C-3.69 84.22, -0.2 91.66, 1.61 98.35 M-7.12 74.92 C-3.38 82.98, 0.06 91.96, 1.61 98.35" stroke="#1e1e1e" stroke-width="2" fill="none"></path></g><g transform="translate(490.82880100979787 206.40340982982661) rotate(0 0.8345925704637693 49.96810297873094)"><path d="M9.98 74.8 C7.38 84, 4.85 91.49, 1.61 98.35 M9.98 74.8 C7.52 82.99, 4.75 92.02, 1.61 98.35" stroke="#1e1e1e" stroke-width="2" fill="none"></path></g></g><mask></mask></svg>